<?xml version="1.0" encoding="utf-8"?>
<!-- Generator: Adobe Illustrator 24.0.2, SVG Export Plug-In . SVG Version: 6.00 Build 0)  -->
<svg version="1.1" id="Calque_1" xmlns="http://www.w3.org/2000/svg" xmlns:xlink="http://www.w3.org/1999/xlink" x="0px" y="0px"
	 viewBox="0 0 1366 768" style="enable-background:new 0 0 1366 768;" xml:space="preserve">
<style type="text/css">
	.st0{fill:url(#SVGID_1_);}
</style>
<g>
	<linearGradient id="SVGID_1_" gradientUnits="userSpaceOnUse" x1="447.0074" y1="238.7363" x2="965.8392" y2="580.1171">
		<stop  offset="0.1775" style="stop-color:#CCE0F4"/>
		<stop  offset="0.2215" style="stop-color:#C3DCF2"/>
		<stop  offset="0.2947" style="stop-color:#A9D2EE"/>
		<stop  offset="0.3881" style="stop-color:#80C2E7"/>
		<stop  offset="0.4969" style="stop-color:#47ACDE"/>
		<stop  offset="0.5674" style="stop-color:#1E9CD7"/>
		<stop  offset="0.8652" style="stop-color:#0075BE"/>
		<stop  offset="0.9944" style="stop-color:#005B97"/>
	</linearGradient>
	<path class="st0" d="M976,382.5c0-19.72-1.84-39-5.35-57.7c-5.69-30.27-15.77-58.99-29.55-85.47
		c-11.06-21.25-24.51-41.06-39.99-59.08c-15.13-17.61-32.2-33.51-50.88-47.35c-17.61-13.06-36.66-24.29-56.85-33.43
		c-17.73-8.02-36.35-14.43-55.68-19.03C714.52,74.92,690.35,72,665.5,72c-36.25,0-71.05,6.21-103.39,17.63
		c-23.51,8.3-45.72,19.35-66.25,32.76c-16.87,11.03-32.6,23.65-46.98,37.65c-14.95,14.56-28.44,30.61-40.22,47.92
		c-9.84,14.45-18.49,29.77-25.81,45.83c-7.2,15.79-13.12,32.28-17.62,49.35C358.56,328.48,355,355.07,355,382.5
		c0,20.69,2.02,40.91,5.88,60.47c4.7,23.81,12.12,46.64,21.93,68.16c8.65,18.98,19.16,36.94,31.28,53.64
		c11.26,15.51,23.92,29.93,37.8,43.09c15.15,14.37,31.75,27.22,49.56,38.33c19.33,12.05,40.08,22.03,61.94,29.64
		C595.37,686.95,629.73,693,665.5,693c29.17,0,57.39-4.02,84.15-11.54c21.11-5.93,41.32-14.04,60.35-24.07
		c17.41-9.17,33.85-19.95,49.11-32.14c19.85-15.85,37.72-34.09,53.16-54.28c12.57-16.44,23.54-34.16,32.67-52.95
		c9.32-19.17,16.72-39.45,21.95-60.58C972.84,433.44,976,408.34,976,382.5z"/>
</g>
</svg>
